<?xml version="1.0" encoding="utf-8"?>
<!-- Generator: Adobe Illustrator 18.1.1, SVG Export Plug-In . SVG Version: 6.00 Build 0)  -->
<!DOCTYPE svg PUBLIC "-//W3C//DTD SVG 1.1//EN" "http://www.w3.org/Graphics/SVG/1.1/DTD/svg11.dtd">
<svg version="1.1" id="Layer_1" xmlns="http://www.w3.org/2000/svg" xmlns:xlink="http://www.w3.org/1999/xlink" x="0px" y="0px"
	 viewBox="0 0 222.6 74.9" enable-background="new 0 0 222.6 74.9" xml:space="preserve">
<g>
	<path fill="#00AED8" d="M14.1,50.7c-1.6,0-2.9-0.7-3.7-2c-0.8-1.3-1.2-3.1-1.2-5.4l0-5.7l0-5.7c0-2.4,0.3-4.2,1.1-5.5
		c0.8-1.3,2.1-2,3.6-2l12.3-0.1l-5.2-9l-8.4,0c-4.3,0-7.4,1.5-9.5,4.3C1.1,22.6,0,27,0,33l0,4.6l0,4.6c0,0,0,0,0,0
		c0,5.9,1.2,10.3,3.3,13.2c2.1,2.9,5.3,4.3,9.6,4.3l8.6,0l5.2-9L14.1,50.7z"/>
	<path fill="#4DC5E2" d="M35.6,11.8c0.8-1.4,2.1-2.2,3.7-2.2c1.5,0,3.2,0.6,5.1,1.7l4.9,2.8l4.9,2.8c3,1.7,4.7,3.5,4.7,5.6
		c0,0.7-0.2,1.5-0.6,2.2l-6.2,10.8l10.4-0.1l4.2-7.3c1.3-2.2,1.9-4.4,1.9-6.4c0-4.8-3.5-9.2-10.8-13.4l-4-2.3l-4-2.3
		C45.4,1.2,41.5,0,38.2,0c-4.2,0-7.4,2-9.8,6.3l-4.3,7.5l5.2,9L35.6,11.8z"/>
	<path fill="#8ED5E7" d="M66.9,46.4l-4.3-7.3l-10.4,0.1l6.3,10.8c0.4,0.7,0.6,1.5,0.6,2.2c0,2.1-1.7,4-4.6,5.7l-4.9,2.9l-4.9,2.9
		c-2,1.2-3.7,1.8-5.1,1.8c-1.6,0-2.9-0.8-3.7-2.2l-6.2-10.6l-5.2,9l4.2,7.2c2.5,4.2,5.7,6.2,9.9,6.2c3.3,0,7.2-1.3,11.7-3.9l4-2.3
		l4-2.3c7.2-4.2,10.6-8.7,10.6-13.5c0,0,0,0,0,0C68.9,50.7,68.2,48.6,66.9,46.4z"/>
</g>
<g>
	<path fill="#58595B" d="M88.1,29.2c-1,0-1.9,0.2-2.8,0.5c-0.8,0.3-1.6,0.8-2.2,1.4c-0.6,0.6-1.1,1.4-1.4,2.3
		c-0.3,0.9-0.5,2-0.5,3.2c0,1.2,0.2,2.2,0.5,3.1c0.3,0.9,0.8,1.6,1.3,2.2c0.6,0.6,1.3,1,2.1,1.4c0.8,0.3,1.8,0.5,2.8,0.5
		c0.8,0,1.5-0.1,2.3-0.2c0.8-0.1,1.5-0.3,2.2-0.5v3.2c-0.7,0.2-1.5,0.4-2.3,0.5c-0.8,0.1-1.6,0.2-2.5,0.2c-1.7,0-3.2-0.2-4.5-0.7
		c-1.3-0.5-2.4-1.2-3.2-2c-0.9-0.9-1.5-1.9-1.9-3.2c-0.4-1.2-0.7-2.6-0.7-4.1c0-1.5,0.2-2.9,0.7-4.2c0.5-1.3,1.1-2.4,2-3.4
		c0.9-1,2-1.7,3.3-2.3c1.3-0.5,2.8-0.8,4.5-0.8c0.8,0,1.6,0.1,2.4,0.2c0.8,0.1,1.4,0.3,2,0.5v3.1c-0.8-0.2-1.5-0.4-2.2-0.5
		C89.5,29.3,88.8,29.2,88.1,29.2z"/>
	<path fill="#58595B" d="M110.8,41.4h-7.5l-2,5.1h-3.9l7.9-20h3.3l7.9,20h-3.9L110.8,41.4z M107,31.3c-0.7,2.1-1.3,3.8-1.9,5.2
		l-0.7,1.8h5.2l-0.7-1.8C108.4,35.2,107.8,33.4,107,31.3L107,31.3z"/>
	<path fill="#58595B" d="M133,35.8c1.4,2,2.6,3.9,3.5,5.4h0.1c-0.1-2.6-0.2-4.5-0.2-5.7v-9.1h3.7v20h-3.8l-6.5-9.2
		c-1.1-1.6-2.3-3.4-3.6-5.5H126c0.1,2.5,0.2,4.4,0.2,5.7v9.1h-3.7v-20h3.8L133,35.8z"/>
	<path fill="#58595B" d="M156.1,46.5h-3.7v-17H146v-3.1h16.6v3.1h-6.4V46.5z"/>
	<path fill="#58595B" d="M168.4,46.5v-20h3.7v20H168.4z"/>
	<path fill="#58595B" d="M190.4,35.8c1.4,2,2.6,3.9,3.5,5.4h0.1c-0.1-2.6-0.2-4.5-0.2-5.7v-9.1h3.7v20h-3.8l-6.5-9.2
		c-1.1-1.6-2.3-3.4-3.6-5.5h-0.1c0.1,2.5,0.2,4.4,0.2,5.7v9.1H180v-20h3.8L190.4,35.8z"/>
	<path fill="#58595B" d="M216.8,41.4h-7.5l-2,5.1h-3.9l7.9-20h3.4l7.9,20h-3.9L216.8,41.4z M213,31.3c-0.7,2.1-1.3,3.8-1.9,5.2
		l-0.7,1.8h5.2l-0.7-1.8C214.4,35.2,213.7,33.4,213,31.3L213,31.3z"/>
</g>
</svg>
